<?xml version="1.0" encoding="UTF-8" standalone="no"?>
<!-- Created with Inkscape (http://www.inkscape.org/) -->

<svg
   xmlns:dc="http://purl.org/dc/elements/1.1/"
   xmlns:cc="http://creativecommons.org/ns#"
   xmlns:rdf="http://www.w3.org/1999/02/22-rdf-syntax-ns#"
   xmlns:svg="http://www.w3.org/2000/svg"
   xmlns="http://www.w3.org/2000/svg"
   xmlns:sodipodi="http://sodipodi.sourceforge.net/DTD/sodipodi-0.dtd"
   xmlns:inkscape="http://www.inkscape.org/namespaces/inkscape"
   version="1.1"
   id="svg10"
   width="960"
   height="720"
   viewBox="0 0 960 720"
   sodipodi:docname="redo_Logo.svg"
   inkscape:version="0.92.2 5c3e80d, 2017-08-06">
  <metadata
     id="metadata16">
    <rdf:RDF>
      <cc:Work
         rdf:about="">
        <dc:format>image/svg+xml</dc:format>
        <dc:type
           rdf:resource="http://purl.org/dc/dcmitype/StillImage" />
        <dc:title />
      </cc:Work>
    </rdf:RDF>
  </metadata>
  <defs
     id="defs14" />
  <sodipodi:namedview
     pagecolor="#ffffff"
     bordercolor="#666666"
     borderopacity="1"
     objecttolerance="10"
     gridtolerance="10"
     guidetolerance="10"
     inkscape:pageopacity="0"
     inkscape:pageshadow="2"
     inkscape:window-width="1280"
     inkscape:window-height="718"
     id="namedview12"
     showgrid="false"
     inkscape:zoom="0.7013889"
     inkscape:cx="388.20116"
     inkscape:cy="302.89808"
     inkscape:window-x="0"
     inkscape:window-y="1"
     inkscape:window-maximized="1"
     inkscape:current-layer="flowRoot28"
     inkscape:lockguides="true" />
  <g
     inkscape:groupmode="layer"
     id="layer1"
     inkscape:label="Black">
    <path
       style="fill:#000000;fill-opacity:0.9898477;fill-rule:evenodd;stroke:#000000;stroke-width:2.66569424"
       d="m 389.26953,50.291016 v 14.845703 c 20.17764,2.506422 27.55409,6.713701 32.43555,12.001953 4.88147,5.288252 4.88086,13.289062 4.88086,13.289062 l 1.40039,26.324216 C 410.3647,98.259349 382.42644,89.026421 381.16016,89.207031 325.24912,81.344293 266.43206,85.410156 209.90234,85.410156 c -5.83063,0.135596 -20.33789,-0.40625 -20.33789,-0.40625 -16.27154,-2.169539 -24.27343,-2.71289 -24.27343,-2.71289 0,0 -1.23131,3.566474 -1.09571,10.888672 0.13361,7.214562 4.59104,6.926062 4.72266,6.916012 -0.24464,-0.0403 -0.43406,-0.0765 -0.68359,-0.117184 l 0.6914,0.115234 -0.008,0.002 c 11.01008,1.82876 22.38592,4.41332 26.88281,13.11133 3.10012,6.18973 3.24991,54.77028 3.56055,82.5293 C 107.26803,237.02668 54.361759,297.3093 54.497857,360.79693 93.832513,540.00672 327.91276,577.39532 472.35333,578.53325 814.2017,582.39519 1054.3895,335.065 735.83984,193.0625 735.98921,167.71287 739,159.98828 739,159.98828 c 6.77981,-8.94935 28.74511,-10.84774 31.45703,-12.74609 2.71193,-1.89834 0.29688,-14.07813 0.29688,-14.07813 -34.01743,2.14098 -68.06734,1.41916 -102.12305,1.17774 1.22604,-17.23951 -4.48047,-31.30469 -4.48047,-31.30469 C 650.59077,66.426136 612.2168,56.798828 612.2168,56.798828 556.59433,48.966106 491.73758,50.521882 442.45117,50.425781 Z m 154.625,30.230468 c 14.65538,4.14174 24.21485,18.158204 24.21485,18.158204 0,0 38.86837,58.622712 0.31835,111.828122 0,0 -9.55889,16.56611 -59.25976,14.33594 0.36057,-45.82193 -0.0193,-96.09182 0.95703,-136.677734 0,0 -8.2e-4,-8.91922 6.37109,-9.875 9.48285,-1.754839 19.76752,0.104476 27.39844,2.230468 z M 297.38477,108.10742 c 4.47604,0.0112 10.10009,0.72692 18.34375,3.05664 14.65538,4.14174 24.21289,18.16016 24.21289,18.16016 0,0 38.86838,58.62076 0.31836,111.82617 0,0 -9.55695,16.56806 -59.25782,14.33789 l 0.31836,-47.15234 -0.31836,-50.01953 0.95508,-39.50586 c 0,0 -8.1e-4,-8.92118 6.37109,-9.87696 2.78772,-0.41815 5.57528,-0.83488 9.05665,-0.82617 z"
       id="path47"
       inkscape:connector-curvature="0"
       sodipodi:nodetypes="cccccccccsccccccccccccccccccccccccsccccccccs" />
    <path
       style="fill:#50ac01;fill-opacity:1;stroke:#50ac01;stroke-width:1px;stroke-linecap:butt;stroke-linejoin:miter;stroke-opacity:1"
       d="m 426.76039,360.63001 c -0.78266,-11.76531 -72.87917,70.87738 -105.45116,176.97106 0,0 -4.16785,7.60748 4.9245,9.49869 0,0 75.15824,12.42575 88.53112,11.6028 0,0 15.2245,2.88031 16.66466,-7.61225 19.13349,-174.25884 0,0 19.13349,-174.25884 0,0 2.91454,-9.9658 1.48701,-12.70189 -5.51168,-4.47833 -15.31229,-3.69239 -25.69548,-4.5205 z"
       id="path48"
       inkscape:connector-curvature="0"
       sodipodi:nodetypes="ccccccccc" />
    <path
       style="fill:#50ac01;fill-opacity:1;stroke:#50ac01;stroke-width:1px;stroke-linecap:butt;stroke-linejoin:miter;stroke-opacity:1"
       d="m 506.93298,360.26713 -30.90605,0.51497 c -4.53678,0.22455 -9.18363,0.19227 -13.1587,1.72749 0,0 -3.73773,3.04549 4.06035,13.85981 l 13.38916,23.90922 24.93915,47.81843 20.30445,40.90315 25.01271,49.73116 c 0,0 4.34814,8.82963 9.12229,11.7707 4.77415,2.94106 7.06241,4.414 18.24457,2.6484 11.18216,-1.7656 36.48914,-6.47388 36.48914,-6.47388 l 55.02798,-14.71336 c 0,0 6.47388,-2.64841 5.00254,-5.29681 -51.66693,-58.63791 -103.44094,-105.7075 -153.90178,-157.13872 0,0 -10.18412,-9.98737 -13.62581,-9.26056 z"
       id="path56"
       inkscape:connector-curvature="0"
       sodipodi:nodetypes="cccccccccsccccc" />
    <path
       style="fill:#50ac01;fill-opacity:1;stroke:#50ac01;stroke-width:1px;stroke-linecap:butt;stroke-linejoin:miter;stroke-opacity:1"
       d="m 573.11049,364.30886 c 201.94721,109.67563 0,0 201.94721,109.67563 0,0 11.24849,5.80568 5.80567,14.87705 -5.44282,9.07137 -47.89682,28.30267 -47.89682,28.30267 0,0 -1.40551,0.75539 -11.7793,-6.16714 -11.29341,-7.53619 -50.34502,-39.15924 -50.26886,-39.1897 l -40.07228,-32.4894 -32.49866,-24.4788 -32.29407,-22.49699 -30.11695,-20.68272 -5.44282,-4.71711 c 0,0 -3.62855,-3.26569 6.16853,-3.62855 9.79708,-0.36285 36.44835,0.99506 36.44835,0.99506 z"
       id="path58"
       inkscape:connector-curvature="0"
       sodipodi:nodetypes="ccscscccccccc" />
    <path
       style="fill:#50ac01;stroke:#50ac01;stroke-width:1px;stroke-linecap:butt;stroke-linejoin:miter;stroke-opacity:1;fill-opacity:1"
       d="m 604.50471,366.7658 c -1.60898,3.49795 27.43697,13.96911 41.90863,20.51683 l 47.3784,23.8031 43.90102,22.29476 52.37366,25.44166 c 0,0 18.68579,12.06865 23.26315,4.85307 0,0 15.63223,-21.465 17.2878,-24.22429 2.1938,-5.27096 0.26678,-6.24488 -4.21665,-9.03507 -4.23098,-2.63308 -35.33654,-18.04386 -35.88957,-17.49083 l -36.79637,-15.90478 c 0,0 -43.33168,-18.32814 -45.53911,-18.32814 -2.20743,0 -30.70419,-10.69841 -39.80985,-10.14655 0,0 -16.06648,-2.40447 -26.55476,-2.28666 -10.39435,0.11676 -35.92504,-1.91039 -37.30635,0.5069 z"
       id="path62"
       inkscape:connector-curvature="0"
       sodipodi:nodetypes="cccccccsccscsc" />
    <path
       style="fill:#50ac01;fill-opacity:1;stroke:#50ac01;stroke-width:1px;stroke-linecap:butt;stroke-linejoin:miter;stroke-opacity:1"
       d="m 745.82755,378.50494 c 0,0 4.69813,-3.22996 17.03071,-1.17453 12.33258,2.05543 36.99774,7.63446 36.99774,7.63446 l 37.87865,9.10262 c 0,0 7.04719,1.7618 7.92808,5.87266 0.8809,4.11086 1.7618,12.03894 -5.57902,18.7925 0.40987,-0.40987 -1.70375,2.26702 -4.94122,1.09019 -30.8916,-13.37123 -59.44977,-23.38505 -87.94562,-37.10528 0,0 -4.98885,-2.67469 -1.36932,-4.21262 z"
       id="path26"
       inkscape:connector-curvature="0"
       sodipodi:nodetypes="csccccccc" />
    <g
       aria-label="Potato Products of Idaho"
       transform="translate(3.3888053,-14.684822)"
       style="font-style:normal;font-variant:normal;font-weight:normal;font-stretch:normal;font-size:74.66666412px;line-height:1.25;font-family:'.Arial Hebrew Desk Interface';-inkscape-font-specification:'.Arial Hebrew Desk Interface';letter-spacing:0px;word-spacing:0px;fill:#000000;fill-opacity:1;stroke:#000000"
       id="flowRoot28">
      <path
         sodipodi:type="inkscape:offset"
         inkscape:radius="0"
         inkscape:original="M 448.16992 625.05664 L 433.01367 627.07227 L 433.01367 629.75977 L 435.62695 630.20703 C 436.82162 630.43103 437.41797 631.10317 437.41797 634.08984 L 437.41797 643.94727 C 435.77531 643.27527 433.68515 642.97656 431.14648 642.97656 C 425.54648 642.97656 420.61825 644.61941 417.18359 647.83008 C 413.67426 651.11541 411.58398 656.11789 411.58398 662.83789 C 411.58398 673.73922 417.10913 681.35352 426.5918 681.35352 C 429.35446 681.35352 433.38597 679.93527 437.41797 676.72461 L 437.41797 680.45898 L 453.54688 680.45898 L 453.54688 677.62109 C 449.29087 677.39709 448.69336 677.09889 448.69336 673.96289 L 448.69336 625.50391 L 448.16992 625.05664 z M 685.80469 625.05664 C 677.51669 625.05664 672.28906 630.43277 672.28906 640.66211 L 672.28906 643.87109 L 667.58594 643.87109 L 667.58594 647.60547 L 672.28906 647.60547 L 672.28906 673.96289 C 672.28906 677.09889 671.69155 677.39709 667.43555 677.62109 L 667.43555 680.45898 L 689.46289 680.45898 L 689.46289 677.62109 C 684.16155 677.39709 683.56445 677.09889 683.56445 673.96289 L 683.56445 647.60547 L 691.25391 647.60547 L 691.25391 643.87109 L 683.56445 643.87109 C 683.56445 640.28709 681.92188 634.01657 681.92188 631.25391 C 681.92188 629.31257 682.81689 628.49023 683.71289 628.49023 C 684.90756 628.49023 685.80297 629.90851 688.04297 634.08984 C 688.78964 635.43384 689.6123 636.33008 691.4043 636.33008 C 693.79363 636.33008 696.85547 634.53867 696.85547 632 C 696.85547 629.23734 694.01802 625.05664 685.80469 625.05664 z M 777.54492 625.05664 L 762.38867 627.07227 L 762.38867 629.75977 L 765.00195 630.20703 C 766.19662 630.43103 766.79297 631.10317 766.79297 634.08984 L 766.79297 643.94727 C 765.15031 643.27527 763.06015 642.97656 760.52148 642.97656 C 754.92148 642.97656 749.99325 644.61941 746.55859 647.83008 C 743.04926 651.11541 740.95898 656.11789 740.95898 662.83789 C 740.95898 673.73922 746.48413 681.35352 755.9668 681.35352 C 758.72946 681.35352 762.76097 679.93527 766.79297 676.72461 L 766.79297 680.45898 L 782.92188 680.45898 L 782.92188 677.62109 C 778.66588 677.39709 778.06836 677.09889 778.06836 673.96289 L 778.06836 625.50391 L 777.54492 625.05664 z M 843.33984 625.05664 L 828.18164 627.07227 L 828.18164 629.75977 L 830.79492 630.20703 C 831.98959 630.43103 832.58789 631.10317 832.58789 634.08984 L 832.58789 673.96289 C 832.58789 677.09889 831.99038 677.39709 827.73438 677.62109 L 827.73438 680.45898 L 847.82031 680.45898 L 847.82031 677.62109 L 846.25195 677.47266 C 844.68395 677.32333 843.86328 676.94838 843.86328 674.48438 L 843.86328 656.78906 C 843.86328 655.14639 844.08671 653.43011 844.60938 652.38477 C 845.58003 650.44344 847.59642 648.72461 850.73242 648.72461 C 854.54042 648.72461 856.48153 651.03953 856.63086 655.51953 L 856.63086 674.48438 C 856.63086 676.94838 855.80823 677.32333 854.24023 677.47266 L 852.67383 677.62109 L 852.67383 680.45898 L 872.75781 680.45898 L 872.75781 677.62109 C 868.50181 677.39709 867.9043 677.09889 867.9043 673.96289 L 867.9043 654.47461 C 867.8296 647.45594 864.32047 642.97656 856.48047 642.97656 C 852.00047 642.97656 848.49261 645.21495 843.86328 648.12695 L 843.86328 625.50391 L 843.33984 625.05664 z M 28.759766 628.78906 L 28.759766 631.62695 C 34.061099 631.85095 34.658203 632.22325 34.658203 636.03125 L 34.658203 673.21484 C 34.658203 677.02284 34.061099 677.39709 28.759766 677.62109 L 28.759766 680.45898 L 53.771484 680.45898 L 53.771484 677.76953 C 47.200818 677.3962 46.603516 677.02284 46.603516 673.21484 L 46.603516 659.92578 L 51.083984 659.92578 C 58.102651 659.92578 63.627834 658.65541 67.0625 656.19141 C 70.795834 653.50341 72.8125 649.4726 72.8125 643.94727 C 72.8125 637.97394 70.123511 633.86695 66.464844 631.62695 C 62.806178 629.38695 57.954249 628.78906 51.90625 628.78906 L 28.759766 628.78906 z M 283.38477 628.78906 L 283.38477 631.62695 C 288.6861 631.85095 289.2832 632.22325 289.2832 636.03125 L 289.2832 673.21484 C 289.2832 677.02284 288.6861 677.39709 283.38477 677.62109 L 283.38477 680.45898 L 308.39648 680.45898 L 308.39648 677.76953 C 301.82582 677.3962 301.22852 677.02284 301.22852 673.21484 L 301.22852 659.92578 L 305.70898 659.92578 C 312.72765 659.92578 318.25283 658.65541 321.6875 656.19141 C 325.42083 653.50341 327.4375 649.4726 327.4375 643.94727 C 327.4375 637.97394 324.7485 633.86695 321.08984 631.62695 C 317.43117 629.38695 312.57925 628.78906 306.53125 628.78906 L 283.38477 628.78906 z M 711.1543 628.78906 L 711.1543 631.62695 C 716.45564 631.85095 717.05273 632.22325 717.05273 636.03125 L 717.05273 673.21484 C 717.05273 677.02284 716.45564 677.39709 711.1543 677.62109 L 711.1543 680.45898 L 734.89844 680.45898 L 734.89844 677.62109 C 729.59711 677.39709 729 677.02284 729 673.21484 L 729 636.03125 C 729 632.22325 729.59711 631.85095 734.89844 631.62695 L 734.89844 628.78906 L 711.1543 628.78906 z M 51.009766 632.22461 C 56.012432 632.22461 60.267578 635.58325 60.267578 644.16992 C 60.267578 649.84459 58.326489 656.49023 50.785156 656.49023 C 47.873156 656.49023 46.603516 656.11664 46.603516 653.2793 L 46.603516 634.98633 C 46.603516 632.89566 47.201766 632.22461 51.009766 632.22461 z M 305.63477 632.22461 C 310.63743 632.22461 314.89258 635.58325 314.89258 644.16992 C 314.89258 649.84459 312.95149 656.49023 305.41016 656.49023 C 302.49816 656.49023 301.22852 656.11664 301.22852 653.2793 L 301.22852 634.98633 C 301.22852 632.89566 301.82677 632.22461 305.63477 632.22461 z M 134.27148 634.46289 L 127.70117 643.87109 L 122.99609 643.87109 L 122.99609 647.60547 L 127.32812 647.60547 L 127.32812 671.72266 C 127.32812 678.51733 132.4046 681.35352 136.58594 681.35352 C 139.64727 681.35352 144.27764 679.9356 148.45898 677.32227 L 147.63672 675.00781 C 146.59139 675.45581 145.02353 675.75391 143.38086 675.75391 C 140.54353 675.75391 138.60156 673.66343 138.60156 668.88477 L 138.60156 647.60547 L 146.36719 647.60547 L 146.36719 643.87109 L 138.60156 643.87109 L 138.60156 634.46289 L 134.27148 634.46289 z M 204.52148 634.46289 L 197.95117 643.87109 L 193.24609 643.87109 L 193.24609 647.60547 L 197.57812 647.60547 L 197.57812 671.72266 C 197.57812 678.51733 202.6546 681.35352 206.83594 681.35352 C 209.89727 681.35352 214.52764 679.9356 218.70898 677.32227 L 217.88672 675.00781 C 216.84139 675.45581 215.27353 675.75391 213.63086 675.75391 C 210.79353 675.75391 208.85156 673.66343 208.85156 668.88477 L 208.85156 647.60547 L 216.61719 647.60547 L 216.61719 643.87109 L 208.85156 643.87109 L 208.85156 634.46289 L 204.52148 634.46289 z M 554.77148 634.46289 L 548.20117 643.87109 L 543.49609 643.87109 L 543.49609 647.60547 L 547.82812 647.60547 L 547.82812 671.72266 C 547.82812 678.51733 552.9046 681.35352 557.08594 681.35352 C 560.14727 681.35352 564.77764 679.9356 568.95898 677.32227 L 568.13672 675.00781 C 567.09139 675.45581 565.52353 675.75391 563.88086 675.75391 C 561.04353 675.75391 559.10156 673.66343 559.10156 668.88477 L 559.10156 647.60547 L 566.86719 647.60547 L 566.86719 643.87109 L 559.10156 643.87109 L 559.10156 634.46289 L 554.77148 634.46289 z M 97.734375 642.97656 C 84.145043 642.97656 78.396484 650.21935 78.396484 662.16602 C 78.396484 674.11268 84.145043 681.35352 97.734375 681.35352 C 111.24904 681.35352 116.99805 674.11268 116.99805 662.16602 C 116.99805 650.21935 111.24904 642.97656 97.734375 642.97656 z M 170.89844 642.97656 C 159.92244 642.97656 153.20117 647.30683 153.20117 652.16016 C 153.20117 655.52016 157.98055 656.86328 159.92188 656.86328 C 161.56455 656.86328 162.38509 655.66895 162.98242 653.87695 C 165.07309 647.53028 167.46402 646.41016 169.55469 646.41016 C 171.72002 646.41016 173.88477 647.67955 173.88477 651.93555 L 173.88477 655.89258 C 171.27143 657.68458 164.99981 659.55264 160.14648 661.19531 C 154.24782 663.21131 152.23047 666.27134 152.23047 670.52734 C 152.23047 676.12734 155.96453 681.35352 163.50586 681.35352 C 168.28453 681.35352 171.57026 678.74078 174.18359 677.02344 C 175.15426 679.33811 176.42381 681.35352 180.00781 681.35352 C 183.89048 681.35352 188.59459 680.0859 191.05859 679.11523 L 190.83398 676.65039 C 189.86331 676.72509 188.37 676.65067 187.25 676.27734 C 186.27933 675.97867 184.86133 675.08306 184.86133 670.67773 L 184.86133 653.42969 C 184.86133 648.80035 184.11444 642.97656 170.89844 642.97656 z M 241.29688 642.97656 C 227.70755 642.97656 221.95898 650.21935 221.95898 662.16602 C 221.95898 674.11268 227.70754 681.35352 241.29688 681.35352 C 254.81154 681.35352 260.56055 674.11268 260.56055 662.16602 C 260.56055 650.21935 254.81155 642.97656 241.29688 642.97656 z M 347.43164 642.97656 L 332.87109 645.14062 L 332.87109 647.83008 L 335.48438 648.20312 C 336.67903 648.35245 337.27734 649.0231 337.27734 652.00977 L 337.27734 673.96289 C 337.27734 677.09889 336.67982 677.39709 332.42383 677.62109 L 332.42383 680.45898 L 354.97266 680.45898 L 354.97266 677.62109 C 349.22332 677.32242 348.55078 677.09889 348.55078 673.96289 L 348.55078 657.23633 C 348.55078 653.35366 349.29784 651.63672 351.08984 651.63672 C 352.28451 651.63672 353.40422 652.23441 355.04688 653.20508 C 356.01754 653.80241 357.06375 654.40039 358.48242 654.40039 C 359.97575 654.40039 361.46969 653.57898 362.29102 652.45898 C 363.11235 651.33898 363.48437 649.8458 363.48438 648.20312 C 363.48438 644.99245 361.39381 642.97656 358.25781 642.97656 C 355.12181 642.97656 352.65879 644.9922 348.32812 649.54688 L 347.43164 642.97656 z M 386.17188 642.97656 C 372.58254 642.97656 366.83398 650.21935 366.83398 662.16602 C 366.83398 674.11268 372.58255 681.35352 386.17188 681.35352 C 399.68655 681.35352 405.43555 674.11268 405.43555 662.16602 C 405.43555 650.21935 399.68655 642.97656 386.17188 642.97656 z M 472.12891 642.97656 L 456.9707 645.14062 L 456.9707 647.83008 L 459.58398 648.20312 C 460.77865 648.35245 461.375 649.0231 461.375 652.00977 L 461.375 670.1543 C 461.375 678.8903 466.82713 681.35352 472.20312 681.35352 C 478.54978 681.35352 482.4313 677.92 485.41797 676.27734 L 486.01562 680.45898 L 501.54688 680.45898 L 501.54688 677.62109 C 497.29087 677.39709 496.69336 677.09889 496.69336 673.96289 L 496.69336 643.42383 L 496.16992 642.97656 L 481.01367 645.14062 L 481.01367 647.83008 L 483.62695 648.20312 C 484.82161 648.35245 485.41797 649.0231 485.41797 652.00977 L 485.41797 667.76562 C 485.41797 669.03495 485.26831 670.82727 484.82031 671.94727 C 484.14831 673.6646 482.2072 675.45508 478.92188 675.45508 C 474.96454 675.45508 472.65039 673.14041 472.65039 667.31641 L 472.65039 643.42383 L 472.12891 642.97656 z M 524.64062 642.97656 C 518.81663 642.97656 514.18812 644.61852 510.82812 647.97852 C 507.69212 651.11452 505.75 655.96689 505.75 662.46289 C 505.75 675.00689 512.76888 681.35352 523.29688 681.35352 C 529.4942 681.35352 536.43761 679.26452 539.34961 670.00586 L 536.73633 668.81055 C 534.19766 673.88788 531.28635 675.60547 527.17969 675.60547 C 522.32635 675.60547 517.62305 672.31988 517.62305 660.67188 C 517.62305 650.66655 520.83275 646.41016 523.96875 646.41016 C 526.58208 646.41016 527.85176 648.72508 529.12109 653.20508 C 529.64376 654.92241 530.76375 655.81836 532.70508 655.81836 C 535.31841 655.81836 538.90234 654.47478 538.90234 651.18945 C 538.90234 645.88811 531.4353 642.97656 524.64062 642.97656 z M 587.66406 642.97656 C 578.55472 642.97656 572.88086 647.2321 572.88086 654.77344 C 572.88086 660.2241 577.28675 663.80748 583.85742 666.27148 C 587.66542 667.61548 591.32422 669.78123 591.32422 673.36523 C 591.32422 676.20256 589.45721 677.91992 586.17188 677.91992 C 581.24388 677.91992 577.28508 672.76719 575.34375 666.64453 L 572.50781 666.64453 L 573.40234 677.76953 C 576.23967 680.38286 581.84015 681.35352 586.02148 681.35352 C 595.13081 681.35352 601.40234 677.24759 601.40234 669.18359 C 601.40234 662.76226 597.37128 659.70123 590.50195 657.08789 C 586.17128 655.51989 582.96094 653.72689 582.96094 650.74023 C 582.96094 648.42556 584.60272 646.41016 587.66406 646.41016 C 591.47206 646.41016 594.68289 649.84487 596.10156 655.51953 L 598.86523 655.51953 L 598.86523 645.58984 C 595.80389 643.72317 591.54672 642.97656 587.66406 642.97656 z M 642.54688 642.97656 C 628.95754 642.97656 623.20898 650.21935 623.20898 662.16602 C 623.20898 674.11268 628.95755 681.35352 642.54688 681.35352 C 656.06155 681.35352 661.81055 674.11268 661.81055 662.16602 C 661.81055 650.21935 656.06155 642.97656 642.54688 642.97656 z M 806.35547 642.97656 C 795.37947 642.97656 788.66016 647.30683 788.66016 652.16016 C 788.66016 655.52016 793.43953 656.86328 795.38086 656.86328 C 797.02353 656.86328 797.84407 655.66895 798.44141 653.87695 C 800.53207 647.53028 802.92106 646.41016 805.01172 646.41016 C 807.17706 646.41016 809.34375 647.67955 809.34375 651.93555 L 809.34375 655.89258 C 806.73042 657.68458 800.45686 659.55264 795.60352 661.19531 C 789.70486 663.21131 787.68945 666.27134 787.68945 670.52734 C 787.68945 676.12734 791.42351 681.35352 798.96484 681.35352 C 803.74351 681.35352 807.02729 678.74078 809.64062 677.02344 C 810.61128 679.33811 811.88084 681.35352 815.46484 681.35352 C 819.3475 681.35352 824.05163 680.0859 826.51562 679.11523 L 826.29297 676.65039 C 825.32231 676.72509 823.82898 676.65067 822.70898 676.27734 C 821.73832 675.97867 820.31836 675.08306 820.31836 670.67773 L 820.31836 653.42969 C 820.31836 648.80035 819.57147 642.97656 806.35547 642.97656 z M 896.29688 642.97656 C 882.70754 642.97656 876.95898 650.21935 876.95898 662.16602 C 876.95898 674.11268 882.70755 681.35352 896.29688 681.35352 C 909.81155 681.35352 915.56055 674.11268 915.56055 662.16602 C 915.56055 650.21935 909.81155 642.97656 896.29688 642.97656 z M 97.734375 646.41016 C 102.96104 646.41016 105.12695 652.16068 105.12695 662.16602 C 105.12695 672.17135 102.96104 677.91992 97.734375 677.91992 C 92.433042 677.91992 90.267578 672.17135 90.267578 662.16602 C 90.267578 652.16068 92.433042 646.41016 97.734375 646.41016 z M 241.29688 646.41016 C 246.52355 646.41016 248.68945 652.16068 248.68945 662.16602 C 248.68945 672.17135 246.52354 677.91992 241.29688 677.91992 C 235.99554 677.91992 233.83008 672.17135 233.83008 662.16602 C 233.83008 652.16068 235.99554 646.41016 241.29688 646.41016 z M 386.17188 646.41016 C 391.39855 646.41016 393.56445 652.16068 393.56445 662.16602 C 393.56445 672.17135 391.39855 677.91992 386.17188 677.91992 C 380.87054 677.91992 378.70508 672.17135 378.70508 662.16602 C 378.70508 652.16068 380.87055 646.41016 386.17188 646.41016 z M 431.74414 646.41016 C 434.58147 646.41016 436.07364 647.82894 436.82031 649.32227 C 437.41764 650.44227 437.41797 652.16052 437.41797 653.72852 L 437.41797 669.10938 C 437.41797 672.09604 436.37242 675.60547 431.59375 675.60547 C 426.74042 675.60547 423.45508 670.90109 423.45508 661.34375 C 423.45508 650.36775 427.5628 646.41016 431.74414 646.41016 z M 642.54688 646.41016 C 647.77355 646.41016 649.93945 652.16068 649.93945 662.16602 C 649.93945 672.17135 647.77355 677.91992 642.54688 677.91992 C 637.24554 677.91992 635.08008 672.17135 635.08008 662.16602 C 635.08008 652.16068 637.24554 646.41016 642.54688 646.41016 z M 761.11914 646.41016 C 763.95647 646.41016 765.44864 647.82894 766.19531 649.32227 C 766.79264 650.44227 766.79297 652.16052 766.79297 653.72852 L 766.79297 669.10938 C 766.79297 672.09604 765.74742 675.60547 760.96875 675.60547 C 756.11542 675.60547 752.83008 670.90109 752.83008 661.34375 C 752.83008 650.36775 756.9378 646.41016 761.11914 646.41016 z M 896.29688 646.41016 C 901.52355 646.41016 903.68945 652.16068 903.68945 662.16602 C 903.68945 672.17135 901.52355 677.91992 896.29688 677.91992 C 890.99554 677.91992 888.83008 672.17135 888.83008 662.16602 C 888.83008 652.16068 890.99554 646.41016 896.29688 646.41016 z M 173.88477 659.62695 L 173.88477 670.45312 C 173.73543 674.48513 171.27186 675.53125 169.25586 675.53125 C 166.34386 675.53125 163.73047 673.21514 163.73047 669.25781 C 163.73047 665.74848 164.92406 664.03105 167.16406 662.76172 C 169.47872 661.49239 172.09277 660.44828 173.88477 659.62695 z M 809.34375 659.62695 L 809.34375 670.45312 C 809.19442 674.48513 806.72889 675.53125 804.71289 675.53125 C 801.80089 675.53125 799.1875 673.21514 799.1875 669.25781 C 799.1875 665.74848 800.38305 664.03105 802.62305 662.76172 C 804.93772 661.49239 807.55175 660.44828 809.34375 659.62695 z "
         style="font-style:normal;font-variant:normal;font-weight:bold;font-stretch:normal;font-size:74.66666412px;font-family:Utopia;-inkscape-font-specification:'Utopia Bold';letter-spacing:1px;fill:#000000;stroke:#000000"
         id="path69"
         d="m 448.16992,625.05664 -15.15625,2.01563 v 2.6875 l 2.61328,0.44726 c 1.19467,0.224 1.79102,0.89614 1.79102,3.88281 v 9.85743 c -1.64266,-0.672 -3.73282,-0.97071 -6.27149,-0.97071 -5.6,0 -10.52823,1.64285 -13.96289,4.85352 -3.50933,3.28533 -5.59961,8.28781 -5.59961,15.00781 0,10.90133 5.52515,18.51563 15.00782,18.51563 2.76266,0 6.79417,-1.41825 10.82617,-4.62891 v 3.73437 h 16.12891 v -2.83789 c -4.25601,-0.224 -4.85352,-0.5222 -4.85352,-3.6582 v -48.45898 z m 237.63477,0 c -8.288,0 -13.51563,5.37613 -13.51563,15.60547 v 3.20898 h -4.70312 v 3.73438 h 4.70312 v 26.35742 c 0,3.136 -0.59751,3.4342 -4.85351,3.6582 v 2.83789 h 22.02734 v -2.83789 c -5.30134,-0.224 -5.89844,-0.5222 -5.89844,-3.6582 v -26.35742 h 7.68946 v -3.73438 h -7.68946 c 0,-3.584 -1.64257,-9.85452 -1.64257,-12.61718 0,-1.94134 0.89501,-2.76368 1.79101,-2.76368 1.19467,0 2.09008,1.41828 4.33008,5.59961 0.74667,1.344 1.56933,2.24024 3.36133,2.24024 2.38933,0 5.45117,-1.79141 5.45117,-4.33008 0,-2.76266 -2.83745,-6.94336 -11.05078,-6.94336 z m 91.74023,0 -15.15625,2.01563 v 2.6875 l 2.61328,0.44726 c 1.19467,0.224 1.79102,0.89614 1.79102,3.88281 v 9.85743 c -1.64266,-0.672 -3.73282,-0.97071 -6.27149,-0.97071 -5.6,0 -10.52823,1.64285 -13.96289,4.85352 -3.50933,3.28533 -5.59961,8.28781 -5.59961,15.00781 0,10.90133 5.52515,18.51563 15.00782,18.51563 2.76266,0 6.79417,-1.41825 10.82617,-4.62891 v 3.73437 h 16.12891 v -2.83789 c -4.256,-0.224 -4.85352,-0.5222 -4.85352,-3.6582 v -48.45898 z m 65.79492,0 -15.1582,2.01563 v 2.6875 l 2.61328,0.44726 c 1.19467,0.224 1.79297,0.89614 1.79297,3.88281 v 39.87305 c 0,3.136 -0.59751,3.4342 -4.85351,3.6582 v 2.83789 h 20.08593 v -2.83789 l -1.56836,-0.14843 c -1.568,-0.14933 -2.38867,-0.52428 -2.38867,-2.98828 v -17.69532 c 0,-1.64267 0.22343,-3.35895 0.7461,-4.40429 0.97065,-1.94133 2.98704,-3.66016 6.12304,-3.66016 3.808,0 5.74911,2.31492 5.89844,6.79492 v 18.96485 c 0,2.464 -0.82263,2.83895 -2.39063,2.98828 l -1.5664,0.14843 v 2.83789 h 20.08398 v -2.83789 c -4.256,-0.224 -4.85351,-0.5222 -4.85351,-3.6582 v -19.48828 c -0.0747,-7.01867 -3.58383,-11.49805 -11.42383,-11.49805 -4.48,0 -7.98786,2.23839 -12.61719,5.15039 v -22.62304 z m -814.580074,3.73242 v 2.83789 c 5.301333,0.224 5.898437,0.5963 5.898437,4.4043 v 37.18359 c 0,3.808 -0.597104,4.18225 -5.898437,4.40625 v 2.83789 h 25.011718 v -2.68945 c -6.570666,-0.37333 -7.167968,-0.74669 -7.167968,-4.55469 v -13.28906 h 4.480468 c 7.018667,0 12.54385,-1.27037 15.978516,-3.73437 3.733334,-2.688 5.75,-6.71881 5.75,-12.24414 0,-5.97333 -2.688989,-10.08032 -6.347656,-12.32032 -3.658666,-2.24 -8.510595,-2.83789 -14.558594,-2.83789 z m 254.625004,0 v 2.83789 c 5.30133,0.224 5.89843,0.5963 5.89843,4.4043 v 37.18359 c 0,3.808 -0.5971,4.18225 -5.89843,4.40625 v 2.83789 h 25.01171 v -2.68945 c -6.57066,-0.37333 -7.16796,-0.74669 -7.16796,-4.55469 v -13.28906 h 4.48046 c 7.01867,0 12.54385,-1.27037 15.97852,-3.73437 3.73333,-2.688 5.75,-6.71881 5.75,-12.24414 0,-5.97333 -2.689,-10.08032 -6.34766,-12.32032 -3.65867,-2.24 -8.51059,-2.83789 -14.55859,-2.83789 z m 427.76953,0 v 2.83789 c 5.30134,0.224 5.89843,0.5963 5.89843,4.4043 v 37.18359 c 0,3.808 -0.59709,4.18225 -5.89843,4.40625 v 2.83789 h 23.74414 v -2.83789 C 729.59711,677.39709 729,677.02284 729,673.21484 v -37.18359 c 0,-3.808 0.59711,-4.1803 5.89844,-4.4043 v -2.83789 z m -660.144534,3.43555 c 5.002666,0 9.257812,3.35864 9.257812,11.94531 0,5.67467 -1.941089,12.32031 -9.482422,12.32031 -2.912,0 -4.18164,-0.37359 -4.18164,-3.21093 v -18.29297 c 0,-2.09067 0.59825,-2.76172 4.40625,-2.76172 z m 254.625004,0 c 5.00266,0 9.25781,3.35864 9.25781,11.94531 0,5.67467 -1.94109,12.32031 -9.48242,12.32031 -2.912,0 -4.18164,-0.37359 -4.18164,-3.21093 v -18.29297 c 0,-2.09067 0.59825,-2.76172 4.40625,-2.76172 z m -171.36329,2.23828 -6.57031,9.4082 h -4.70508 v 3.73438 h 4.33203 v 24.11719 c 0,6.79467 5.07648,9.63086 9.25782,9.63086 3.06133,0 7.6917,-1.41792 11.87304,-4.03125 l -0.82226,-2.31446 c -1.04533,0.448 -2.61319,0.7461 -4.25586,0.7461 -2.83733,0 -4.7793,-2.09048 -4.7793,-6.86914 v -21.2793 h 7.76563 v -3.73438 h -7.76563 v -9.4082 z m 70.25,0 -6.57031,9.4082 h -4.70508 v 3.73438 h 4.33203 v 24.11719 c 0,6.79467 5.07648,9.63086 9.25782,9.63086 3.06133,0 7.6917,-1.41792 11.87304,-4.03125 l -0.82226,-2.31446 c -1.04533,0.448 -2.61319,0.7461 -4.25586,0.7461 -2.83733,0 -4.7793,-2.09048 -4.7793,-6.86914 v -21.2793 h 7.76563 v -3.73438 h -7.76563 v -9.4082 z m 350.25,0 -6.57031,9.4082 h -4.70508 v 3.73438 h 4.33203 v 24.11719 c 0,6.79467 5.07648,9.63086 9.25782,9.63086 3.06133,0 7.6917,-1.41792 11.87304,-4.03125 l -0.82226,-2.31446 c -1.04533,0.448 -2.61319,0.7461 -4.25586,0.7461 -2.83733,0 -4.7793,-2.09048 -4.7793,-6.86914 v -21.2793 h 7.76563 v -3.73438 h -7.76563 v -9.4082 z m -457.037105,8.51367 c -13.589332,0 -19.337891,7.24279 -19.337891,19.18946 0,11.94666 5.748559,19.1875 19.337891,19.1875 13.514665,0 19.263675,-7.24084 19.263675,-19.1875 0,-11.94667 -5.74901,-19.18946 -19.263675,-19.18946 z m 73.164065,0 c -10.976,0 -17.69727,4.33027 -17.69727,9.1836 0,3.36 4.77938,4.70312 6.72071,4.70312 1.64267,0 2.46321,-1.19433 3.06054,-2.98633 2.09067,-6.34667 4.4816,-7.46679 6.57227,-7.46679 2.16533,0 4.33008,1.26939 4.33008,5.52539 v 3.95703 c -2.61334,1.792 -8.88496,3.66006 -13.73829,5.30273 -5.89866,2.016 -7.91601,5.07603 -7.91601,9.33203 0,5.6 3.73406,10.82618 11.27539,10.82618 4.77867,0 8.0644,-2.61274 10.67773,-4.33008 0.97067,2.31467 2.24022,4.33008 5.82422,4.33008 3.88267,0 8.58678,-1.26762 11.05078,-2.23829 l -0.22461,-2.46484 c -0.97067,0.0747 -2.46398,2.8e-4 -3.58398,-0.37305 -0.97067,-0.29867 -2.38867,-1.19428 -2.38867,-5.59961 v -17.24804 c 0,-4.62934 -0.74689,-10.45313 -13.96289,-10.45313 z m 70.39844,0 c -13.58933,0 -19.3379,7.24279 -19.3379,19.18946 0,11.94666 5.74856,19.1875 19.3379,19.1875 13.51466,0 19.26367,-7.24084 19.26367,-19.1875 0,-11.94667 -5.749,-19.18946 -19.26367,-19.18946 z m 106.13476,0 -14.56055,2.16406 v 2.68946 l 2.61329,0.37304 c 1.19465,0.14933 1.79296,0.81998 1.79296,3.80665 v 21.95312 c 0,3.136 -0.59752,3.4342 -4.85351,3.6582 v 2.83789 h 22.54883 v -2.83789 c -5.74934,-0.29867 -6.42188,-0.5222 -6.42188,-3.6582 v -16.72656 c 0,-3.88267 0.74706,-5.59961 2.53906,-5.59961 1.19467,0 2.31438,0.59769 3.95704,1.56836 0.97066,0.59733 2.01687,1.19531 3.43554,1.19531 1.49333,0 2.98727,-0.82141 3.8086,-1.94141 0.82133,-1.12 1.19335,-2.61318 1.19336,-4.25586 0,-3.21067 -2.09057,-5.22656 -5.22657,-5.22656 -3.136,0 -5.59902,2.01564 -9.92969,6.57032 z m 38.74024,0 c -13.58934,0 -19.3379,7.24279 -19.3379,19.18946 0,11.94666 5.74857,19.1875 19.3379,19.1875 13.51467,0 19.26367,-7.24084 19.26367,-19.1875 0,-11.94667 -5.749,-19.18946 -19.26367,-19.18946 z m 85.95703,0 -15.15821,2.16406 v 2.68946 l 2.61328,0.37304 c 1.19467,0.14933 1.79102,0.81998 1.79102,3.80665 v 18.14453 c 0,8.736 5.45213,11.19922 10.82812,11.19922 6.34666,0 10.22818,-3.43352 13.21485,-5.07618 l 0.59765,4.18164 h 15.53126 v -2.83789 c -4.25601,-0.224 -4.85352,-0.5222 -4.85352,-3.6582 v -30.53906 l -0.52344,-0.44727 -15.15625,2.16406 v 2.68946 l 2.61328,0.37304 c 1.19466,0.14933 1.79102,0.81998 1.79102,3.80665 v 15.75585 c 0,1.26933 -0.14966,3.06165 -0.59766,4.18165 -0.672,1.71733 -2.61311,3.50781 -5.89843,3.50781 -3.95734,0 -6.27149,-2.31467 -6.27149,-8.13867 v -23.89258 z m 52.51171,0 c -5.82399,0 -10.4525,1.64196 -13.8125,5.00196 -3.136,3.136 -5.07812,7.98837 -5.07812,14.48437 0,12.544 7.01888,18.89063 17.54688,18.89063 6.19732,0 13.14073,-2.089 16.05273,-11.34766 l -2.61328,-1.19531 c -2.53867,5.07733 -5.44998,6.79492 -9.55664,6.79492 -4.85334,0 -9.55664,-3.28559 -9.55664,-14.93359 0,-10.00533 3.2097,-14.26172 6.3457,-14.26172 2.61333,0 3.88301,2.31492 5.15234,6.79492 0.52267,1.71733 1.64266,2.61328 3.58399,2.61328 2.61333,0 6.19726,-1.34358 6.19726,-4.62891 0,-5.30134 -7.46704,-8.21289 -14.26172,-8.21289 z m 63.02344,0 c -9.10934,0 -14.7832,4.25554 -14.7832,11.79688 0,5.45066 4.40589,9.03404 10.97656,11.49804 3.808,1.344 7.4668,3.50975 7.4668,7.09375 0,2.83733 -1.86701,4.55469 -5.15234,4.55469 -4.928,0 -8.8868,-5.15273 -10.82813,-11.27539 h -2.83594 l 0.89453,11.125 c 2.83733,2.61333 8.43781,3.58399 12.61914,3.58399 9.10933,0 15.38086,-4.10593 15.38086,-12.16993 0,-6.42133 -4.03106,-9.48236 -10.90039,-12.0957 -4.33067,-1.568 -7.54101,-3.361 -7.54101,-6.34766 0,-2.31467 1.64178,-4.33007 4.70312,-4.33007 3.808,0 7.01883,3.43471 8.4375,9.10937 h 2.76367 v -9.92969 c -3.06134,-1.86667 -7.31851,-2.61328 -11.20117,-2.61328 z m 54.88282,0 c -13.58934,0 -19.3379,7.24279 -19.3379,19.18946 0,11.94666 5.74857,19.1875 19.3379,19.1875 13.51467,0 19.26367,-7.24084 19.26367,-19.1875 0,-11.94667 -5.749,-19.18946 -19.26367,-19.18946 z m 163.80859,0 c -10.976,0 -17.69531,4.33027 -17.69531,9.1836 0,3.36 4.77937,4.70312 6.7207,4.70312 1.64267,0 2.46321,-1.19433 3.06055,-2.98633 2.09066,-6.34667 4.47965,-7.46679 6.57031,-7.46679 2.16534,0 4.33203,1.26939 4.33203,5.52539 v 3.95703 c -2.61333,1.792 -8.88689,3.66006 -13.74023,5.30273 -5.89866,2.016 -7.91407,5.07603 -7.91407,9.33203 0,5.6 3.73406,10.82618 11.27539,10.82618 4.77867,0 8.06245,-2.61274 10.67578,-4.33008 0.97066,2.31467 2.24022,4.33008 5.82422,4.33008 3.88266,0 8.58679,-1.26762 11.05078,-2.23829 l -0.22265,-2.46484 c -0.97066,0.0747 -2.46399,2.8e-4 -3.58399,-0.37305 -0.97066,-0.29867 -2.39062,-1.19428 -2.39062,-5.59961 v -17.24804 c 0,-4.62934 -0.74689,-10.45313 -13.96289,-10.45313 z m 89.94141,0 c -13.58934,0 -19.3379,7.24279 -19.3379,19.18946 0,11.94666 5.74857,19.1875 19.3379,19.1875 13.51467,0 19.26367,-7.24084 19.26367,-19.1875 0,-11.94667 -5.749,-19.18946 -19.26367,-19.18946 z m -798.562505,3.4336 c 5.226665,0 7.392575,5.75052 7.392575,15.75586 0,10.00533 -2.16591,15.7539 -7.392575,15.7539 -5.301333,0 -7.466797,-5.74857 -7.466797,-15.7539 0,-10.00534 2.165464,-15.75586 7.466797,-15.75586 z m 143.562505,0 c 5.22667,0 7.39257,5.75052 7.39257,15.75586 0,10.00533 -2.16591,15.7539 -7.39257,15.7539 -5.30134,0 -7.4668,-5.74857 -7.4668,-15.7539 0,-10.00534 2.16546,-15.75586 7.4668,-15.75586 z m 144.875,0 c 5.22667,0 7.39257,5.75052 7.39257,15.75586 0,10.00533 -2.1659,15.7539 -7.39257,15.7539 -5.30134,0 -7.4668,-5.74857 -7.4668,-15.7539 0,-10.00534 2.16547,-15.75586 7.4668,-15.75586 z m 45.57226,0 c 2.83733,0 4.3295,1.41878 5.07617,2.91211 0.59733,1.12 0.59766,2.83825 0.59766,4.40625 v 15.38086 c 0,2.98666 -1.04555,6.49609 -5.82422,6.49609 -4.85333,0 -8.13867,-4.70438 -8.13867,-14.26172 0,-10.976 4.10772,-14.93359 8.28906,-14.93359 z m 210.80274,0 c 5.22667,0 7.39257,5.75052 7.39257,15.75586 0,10.00533 -2.1659,15.7539 -7.39257,15.7539 -5.30134,0 -7.4668,-5.74857 -7.4668,-15.7539 0,-10.00534 2.16546,-15.75586 7.4668,-15.75586 z m 118.57226,0 c 2.83733,0 4.3295,1.41878 5.07617,2.91211 0.59733,1.12 0.59766,2.83825 0.59766,4.40625 v 15.38086 c 0,2.98666 -1.04555,6.49609 -5.82422,6.49609 -4.85333,0 -8.13867,-4.70438 -8.13867,-14.26172 0,-10.976 4.10772,-14.93359 8.28906,-14.93359 z m 135.17774,0 c 5.22667,0 7.39257,5.75052 7.39257,15.75586 0,10.00533 -2.1659,15.7539 -7.39257,15.7539 -5.30134,0 -7.4668,-5.74857 -7.4668,-15.7539 0,-10.00534 2.16546,-15.75586 7.4668,-15.75586 z m -722.41211,13.21679 v 10.82617 c -0.14934,4.03201 -2.61291,5.07813 -4.62891,5.07813 -2.912,0 -5.52539,-2.31611 -5.52539,-6.27344 0,-3.50933 1.19359,-5.22676 3.43359,-6.49609 2.31466,-1.26933 4.92871,-2.31344 6.72071,-3.13477 z m 635.45898,0 v 10.82617 c -0.14933,4.03201 -2.61486,5.07813 -4.63086,5.07813 -2.912,0 -5.52539,-2.31611 -5.52539,-6.27344 0,-3.50933 1.19555,-5.22676 3.43555,-6.49609 2.31467,-1.26933 4.9287,-2.31344 6.7207,-3.13477 z" />
    </g>
  </g>
  <g
     inkscape:groupmode="layer"
     id="layer3"
     inkscape:label="White" />
  <g
     inkscape:groupmode="layer"
     id="layer2"
     inkscape:label="Yellow">
    <path
       style="fill:#fffe54;fill-opacity:1;stroke:#fffe54;stroke-width:1px;stroke-linecap:butt;stroke-linejoin:miter;stroke-opacity:1"
       d="m 95.050763,376.07815 c 0.899534,-13.19316 -5.397204,-26.08648 18.590367,-62.36769 0,0 29.08494,-43.77732 84.85605,-71.66288 0,0 0.89953,98.34906 -2.09892,109.74316 -2.99844,11.39409 -20.68928,16.19161 -20.68928,16.19161 -25.03004,8.47736 -81.588459,30.38374 -80.658217,8.0958 z"
       id="path114"
       inkscape:connector-curvature="0"
       sodipodi:nodetypes="cccscc" />
    <path
       style="fill:#fffe54;stroke:#fffe54;stroke-width:1px;stroke-linecap:butt;stroke-linejoin:miter;stroke-opacity:1;fill-opacity:1"
       d="m 279.70156,281.005 c 0,0 0.3411,53.89371 1.36439,56.62251 1.0233,2.72879 3.411,11.59738 12.62068,12.96178 9.20969,1.36439 92.09686,0.34109 118.70262,-3.7521 0,0 9.55078,-1.7055 10.57408,-10.91518 1.0233,-9.20969 1.3644,-99.60104 1.3644,-99.60104 0,0 -15.34948,18.07827 -53.55262,32.40444 -38.20314,14.32618 -91.07355,12.27959 -91.07355,12.27959 z"
       id="path116"
       inkscape:connector-curvature="0" />
    <path
       style="fill:#fffe54;fill-opacity:1;stroke:#fffe54;stroke-width:1px;stroke-linecap:butt;stroke-linejoin:miter;stroke-opacity:1"
       d="m 651.76744,208.05632 c 0,0 0.34313,-4.11751 -1.3725,-4.28908 -1.71563,-0.17156 -5.49001,4.97533 -5.49001,4.97533 0,0 -10.6369,13.21034 -21.44536,18.18567 -10.80847,4.97532 -12.35253,6.51939 -29.33726,11.32315 0,0 -12.69565,3.77438 -21.44536,4.97532 -8.74971,1.20094 -20.75911,3.08813 -44.26323,2.57344 0,0 -14.41128,0 -19.04348,1.71563 l -2.23032,44.09167 -0.51469,27.2785 c 0,0 0.17157,25.39131 15.61223,28.99413 38.7993,4.84758 78.28828,3.31836 117.34902,3.43126 0,0 8.05079,2.03611 13.20401,-12.70698 -0.11072,-39.34216 -0.36519,-78.68306 -0.67992,-118.02395 z"
       id="path130"
       inkscape:connector-curvature="0"
       sodipodi:nodetypes="cccccsccccccccc" />
    <path
       style="fill:#fffe54;fill-opacity:1;stroke:#fffe54;stroke-width:1px;stroke-linecap:butt;stroke-linejoin:miter;stroke-opacity:1"
       d="m 735.69182,238.23491 c 0,0 32.34957,10.43534 84.52629,67.13405 0,0 18.97356,24.32719 23.30561,48.35043 4.33204,24.02324 2.98272,31.44502 2.98272,31.44502 0,0 1.06674,1.91847 -11.93783,-1.82035 -26.59819,-6.70168 -53.2503,-13.15196 -79.81558,-19.99453 0,0 -10.24111,-3.25115 -13.16713,-6.50229 -2.92603,-3.25114 -5.03928,-8.94065 -5.20183,-13.81736 -1.44572,-36.69689 -1.72549,-64.67959 -1.95069,-99.81011 0,0 -0.57171,-5.58067 1.25844,-4.98486 z"
       id="path132"
       inkscape:connector-curvature="0"
       sodipodi:nodetypes="ccsccccccc" />
  </g>
  <g
     inkscape:groupmode="layer"
     id="layer4"
     inkscape:label="Green">
    <path
       style="fill:#50ac01;stroke:#50ac01;stroke-width:1px;stroke-linecap:butt;stroke-linejoin:miter;stroke-opacity:1;fill-opacity:1"
       d="m 134.18733,393.92555 c 0.95846,0.244 -0.12212,4.71921 -8.02887,9.42526 -8.01579,4.77096 -23.44192,8.18292 -23.44192,8.18292 -2.09507,1.45467 -8.150515,-3.4928 -5.391567,-9.4438 -0.230388,-0.94327 8.105907,-5.00433 18.750677,-6.60396 2.31398,-0.40243 11.67737,-2.32734 12.62312,-2.37201 1.44346,-0.13122 4.8575,-0.90267 5.48856,0.81159 z"
       id="path34"
       inkscape:connector-curvature="0"
       sodipodi:nodetypes="csccccc" />
    <path
       style="fill:#50ac01;stroke:#50ac01;stroke-width:1px;stroke-linecap:butt;stroke-linejoin:miter;stroke-opacity:1;fill-opacity:1"
       d="m 295.49692,367.15564 c 1.10656,-0.15808 9.47473,1.3823 8.35724,3.34805 0.64285,1.71426 -1.50003,5.35726 -5.35713,7.28582 -3.8571,1.92855 -32.99975,15.85693 -32.99975,15.85693 l -31.28539,16.49987 -38.57107,21.64263 -32.14248,17.99982 c -9.21937,4.77617 -16.51216,10.53706 -26.91934,13.33354 -0.006,0.0277 -4.01662,3.14445 -7.49981,-2.15364 -5.68414,-2.94484 -18.21416,-20.84912 -17.72656,-20.97821 0,0 -3.87194,-6.77434 3.3106,-11.9783 7.35204,-5.32675 32.27094,-14.56243 31.1085,-14.35699 16.3077,-7.48662 33.29321,-14.4855 49.22624,-21.58366 l 31.07115,-12.56809 26.78511,-10.07137 c 0.21888,-0.43776 12.25809,-2.5436 26.4535,-2.33536 15.30273,0.22449 16.18919,0.0577 16.18919,0.059 z"
       id="path40"
       inkscape:connector-curvature="0"
       sodipodi:nodetypes="ccccccccccsccccsc" />
    <path
       style="fill:#50ac01;fill-opacity:1;stroke:#50ac01;stroke-width:1px;stroke-linecap:butt;stroke-linejoin:miter;stroke-opacity:1"
       d="m 228.05814,522.45913 c 15.03166,-9.34773 24.68927,-22.88263 35.31776,-34.43195 29.01362,-31.26024 62.89129,-62.9839 91.78403,-87.00857 l 36.92506,-32.71035 c 0.36563,0.0731 6.23738,-3.44585 -0.53218,-4.2147 -4.53291,-0.51482 -32.06745,1.08582 -32.06745,1.08582 0,0 -7.36144,0.8608 -10.28673,3.13603 l -17.87318,9.10446 -23.50588,13.54062 c -8.24416,4.57566 -16.38829,9.35137 -24.06666,15.05862 l -38.34305,25.03104 -32.39605,24.26667 -22.64508,16.25517 c 0,0 -11.70115,9.74739 -12.67625,11.37255 -1.59906,0.5852 -7.33351,10.2023 1.94662,15.37651 0,0 33.7926,20.88776 48.41904,24.13808 z"
       id="path44"
       inkscape:connector-curvature="0"
       sodipodi:nodetypes="ccccsccccccccccc" />
  </g>
</svg>
